<svg xmlns="http://www.w3.org/2000/svg" viewBox="0 0 256 256" role="img" aria-label="FireFiles burning folder logo">
  <rect width="256" height="256" rx="48" fill="#111827"/>
  <path d="M42 83c0-13 10-23 23-23h45l20 22h61c13 0 23 10 23 23v72c0 13-10 23-23 23H65c-13 0-23-10-23-23V83z" fill="#f59e0b"/>
  <path d="M42 110h172v69c0 12-10 21-22 21H64c-12 0-22-9-22-21v-69z" fill="#f97316"/>
  <path d="M137 183c-25 0-43-17-43-40 0-18 12-30 25-43 8-8 16-17 19-29 25 17 24 38 19 52 9-6 15-16 17-27 16 13 25 28 25 45 0 25-22 42-62 42z" fill="#fee2e2"/>
  <path d="M139 179c-16 0-27-11-27-25 0-12 8-20 16-28 5-5 11-11 13-19 16 11 15 25 12 34 6-4 10-10 11-17 10 8 16 18 16 29 0 16-14 26-41 26z" fill="#dc2626"/>
  <path d="M142 177c-9 0-16-6-16-15 0-7 5-12 10-17 3-3 6-7 8-12 10 7 9 15 7 21 4-2 6-6 7-10 6 5 10 11 10 18 0 9-9 15-26 15z" fill="#facc15"/>
</svg>
